<?xml version="1.0" standalone="no"?>
<!DOCTYPE svg PUBLIC "-//W3C//DTD SVG 20010904//EN"
 "http://www.w3.org/TR/2001/REC-SVG-20010904/DTD/svg10.dtd">
<svg version="1.0" xmlns="http://www.w3.org/2000/svg"
 width="474.000000pt" height="269.000000pt" viewBox="0 0 474.000000 269.000000"
 preserveAspectRatio="xMidYMid meet">

<g transform="translate(0.000000,269.000000) scale(0.100000,-0.100000)"
fill="#000000" stroke="none">
<path d="M1190 1764 c-173 -102 -320 -191 -326 -197 -8 -9 -10 -119 -6 -393
l5 -382 325 -183 c178 -101 331 -185 338 -187 12 -3 630 354 658 379 5 4 -2
13 -15 19 -23 10 -54 -6 -332 -169 l-308 -180 -182 103 c-100 56 -239 135
-309 175 l-128 72 0 88 c0 48 -3 209 -7 357 l-6 270 269 159 c148 87 288 170
312 183 l43 24 310 -176 c260 -148 313 -174 330 -166 10 6 19 14 19 18 -1 9
-635 366 -658 370 -9 1 -159 -81 -332 -184z"/>
<path d="M1223 1698 l-293 -171 0 -343 0 -343 67 -39 c38 -21 173 -98 301
-171 l233 -131 294 172 c162 95 290 174 285 176 -5 2 -136 -71 -291 -162 -155
-91 -285 -166 -290 -166 -6 0 -499 277 -567 318 -9 6 -14 89 -19 343 l-6 335
104 60 c57 33 186 109 286 167 100 59 187 107 193 107 6 0 100 -50 208 -111
108 -61 237 -134 285 -161 49 -28 90 -48 93 -45 3 2 -77 51 -178 108 -101 56
-232 131 -293 166 -60 35 -112 63 -115 63 -3 0 -137 -77 -297 -172z"/>
<path d="M2080 1165 l0 -135 103 0 c88 0 106 3 120 18 20 22 22 70 5 108 -10
22 -10 28 0 32 16 5 16 84 0 100 -8 8 -49 12 -120 12 l-108 0 0 -135z m190 60
c0 -24 -2 -25 -70 -25 -68 0 -70 1 -70 25 0 24 2 25 70 25 68 0 70 -1 70 -25z
m0 -110 c0 -24 -2 -25 -70 -25 -68 0 -70 1 -70 25 0 24 2 25 70 25 68 0 70 -1
70 -25z"/>
<path d="M2362 1168 c3 -125 4 -133 23 -133 16 0 21 8 25 39 5 36 8 40 39 44
29 3 39 -3 77 -42 24 -25 50 -46 59 -46 18 0 21 50 3 68 -10 10 -10 17 0 32
16 25 16 142 0 158 -8 8 -49 12 -120 12 l-109 0 3 -132z m188 42 l0 -40 -70 0
-70 0 0 40 0 40 70 0 70 0 0 -40z"/>
<path d="M2647 1293 c-2 -5 -3 -48 -2 -98 4 -172 3 -165 25 -165 19 0 20 7 20
135 0 127 -1 135 -19 135 -11 0 -22 -3 -24 -7z"/>
<path d="M2752 1288 c-17 -17 -17 -229 0 -246 8 -8 46 -12 103 -12 76 0 95 3
108 18 27 29 22 62 -8 62 -14 0 -25 -4 -25 -10 0 -6 -30 -10 -70 -10 l-70 0 0
80 0 80 65 0 c49 0 67 -4 71 -15 8 -20 43 -19 51 1 3 8 1 26 -5 40 -11 23 -15
24 -110 24 -63 0 -102 -4 -110 -12z"/>
<path d="M3014 1286 c-3 -7 -3 -67 -1 -132 3 -113 5 -119 25 -122 20 -3 22 1
22 52 l0 56 48 0 c56 0 88 -26 94 -75 2 -24 8 -30 28 -30 22 0 25 4 24 38 -1
24 -9 46 -23 61 -27 28 -26 32 4 68 16 19 25 42 25 64 0 31 -3 34 -30 34 -26
0 -30 -4 -30 -28 0 -44 -37 -72 -93 -72 l-47 0 0 50 c0 44 -3 50 -20 50 -11 0
-23 -6 -26 -14z"/>
<path d="M3283 1285 c-10 -26 8 -34 86 -37 l73 -3 -72 -70 c-74 -72 -94 -103
-84 -130 5 -13 25 -15 123 -13 l116 3 0 25 c0 24 -2 25 -79 28 l-80 3 83 83
c113 114 111 120 -42 124 -100 2 -118 0 -124 -13z"/>
<path d="M3572 1288 c-8 -8 -12 -49 -12 -119 0 -137 2 -139 116 -139 125 0
124 -1 124 133 0 75 -4 117 -12 125 -8 8 -47 12 -108 12 -61 0 -100 -4 -108
-12z m178 -118 l0 -80 -70 0 -70 0 0 80 0 80 70 0 70 0 0 -80z"/>
<path d="M3849 1283 c-2 -10 -3 -71 -1 -135 3 -109 5 -118 23 -118 16 0 19 8
20 48 1 26 1 64 0 85 -2 20 1 37 7 37 5 0 39 -38 76 -85 95 -122 117 -113 111
50 -2 33 -3 77 -4 98 -1 30 -5 37 -21 37 -18 0 -20 -7 -20 -72 0 -40 -4 -79
-8 -85 -5 -9 -29 15 -71 72 -47 64 -69 85 -86 85 -14 0 -24 -7 -26 -17z"/>
<path d="M4130 1165 l0 -135 110 0 110 0 0 30 0 30 -85 0 c-84 0 -85 0 -85 25
0 25 1 25 81 25 l80 0 -3 28 c-3 27 -4 27 -80 30 -75 3 -78 4 -78 27 0 25 1
25 85 25 84 0 85 0 85 25 l0 25 -110 0 -110 0 0 -135z"/>
</g>
</svg>
